:version 1.10
:name ASF
:units
  mass 1
  length 1
  angle deg
:documentation
  ASF file generated by Kaydara
:root
  axis xyz
  order  tx ty tz rx ry rz
  position 0 0 0
  orientation 0 0 0
:bonedata
  begin
    id 1
    name lfemurDummy
    direction 0.61522 -0.761478 0.204097
    length 5.68318
    axis 0 -0 0 xyz
  end
  begin
    id 2
    name lfemur
    direction 0.34202 -0.939693 -5.84747e-008
    length 16.9147
    axis 0 -0 20 xyz
    dof rx ry rz
    limits( -inf , inf )
( -inf , inf )
( -inf , inf )

  end
  begin
    id 3
    name ltibia
    direction 0.34202 -0.939693 1.20839e-009
    length 18.0532
    axis 0 -0 20 xyz
    dof rz ry rx
    limits( -inf , inf )
( -inf , inf )
( -inf , inf )

  end
  begin
    id 4
    name lfoot
    direction 0.0841971 -0.23133 0.969225
    length 5.23822
    axis -90 7.62852e-016 20 xyz
    dof ry rx rz
    limits( -inf , inf )
( -inf , inf )
( -inf , inf )

  end
  begin
    id 5
    name ltoes
    direction 0 0 0
    length 0
    axis 0 0 0 xyz
    dof rz ry rx
    limits( -inf , inf )
( -inf , inf )
( -inf , inf )

  end
  begin
    id 6
    name rfemurDummy
    direction -0.625247 -0.75382 0.202044
    length 5.74091
    axis 0 -0 0 xyz
  end
  begin
    id 7
    name rfemur
    direction -0.34202 -0.939693 -1.47013e-008
    length 16.4922
    axis 0 -0 -20 xyz
    dof rx ry rz
    limits( -inf , inf )
( -inf , inf )
( -inf , inf )

  end
  begin
    id 8
    name rtibia
    direction -0.34202 -0.939693 -7.74345e-010
    length 18.2421
    axis 0 -0 -20 xyz
    dof rz ry rx
    limits( -inf , inf )
( -inf , inf )
( -inf , inf )

  end
  begin
    id 9
    name rfoot
    direction -0.124331 -0.341598 0.931586
    length 5.45787
    axis -90 -7.62852e-016 -20 xyz
    dof ry rx rz
    limits( -inf , inf )
( -inf , inf )
( -inf , inf )

  end
  begin
    id 10
    name rtoes
    direction 0 0 0
    length 0
    axis 0 0 0 xyz
    dof rz ry rx
    limits( -inf , inf )
( -inf , inf )
( -inf , inf )

  end
  begin
    id 11
    name lowerbackDummy
    direction 0 0 0
    length 0
    axis 0 -0 0 xyz
  end
  begin
    id 12
    name lowerback
    direction -0.0218484 0.994884 -0.0986304
    length 4.45607
    axis 0 -0 0 xyz
    dof rx ry rz
    limits( -inf , inf )
( -inf , inf )
( -inf , inf )

  end
  begin
    id 13
    name upperback
    direction -0.00973057 0.999717 -0.0217111
    length 4.47449
    axis 0 -0 0 xyz
    dof rx ry rz
    limits( -inf , inf )
( -inf , inf )
( -inf , inf )

  end
  begin
    id 14
    name thorax
    direction -0.000928171 0.999699 0.0245198
    length 4.50973
    axis 0 -0 0 xyz
    dof rx ry rz
    limits( -inf , inf )
( -inf , inf )
( -inf , inf )

  end
  begin
    id 15
    name rclavicle
    direction -0.9009 0.425937 -0.0834055
    length 7.28587
    axis 0 -0 0 xyz
    dof rx ry rz
    limits( -inf , inf )
( -inf , inf )
( -inf , inf )

  end
  begin
    id 16
    name rhumerus
    direction -1 -2.23604e-007 -1.42637e-007
    length 13.5704
    axis 180 30 90 xyz
    dof rx ry rz
    limits( -inf , inf )
( -inf , inf )
( -inf , inf )

  end
  begin
    id 17
    name rradius
    direction -1 5.68281e-008 -4.4952e-007
    length 8.06782
    axis 180 30 90 xyz
    dof rz ry rx
    limits( -inf , inf )
( -inf , inf )
( -inf , inf )

  end
  begin
    id 18
    name rwrist
    direction -1 1.51393e-007 1.38143e-007
    length 4.03391
    axis -90 -90 0 xyz
    dof rz rx ry
    limits( -inf , inf )
( -inf , inf )
( -inf , inf )

  end
  begin
    id 19
    name rthumb
    direction 0 0 0
    length 0
    axis 0 0 0 xyz
    dof ry rx rz
    limits( -inf , inf )
( -inf , inf )
( -inf , inf )

  end
  begin
    id 20
    name rhand
    direction -1 -3.34077e-007 -5.59631e-007
    length 1.29744
    axis -90 -90 0 xyz
    dof ry rx rz
    limits( -inf , inf )
( -inf , inf )
( -inf , inf )

  end
  begin
    id 21
    name rfingers
    direction 0 0 0
    length 0
    axis 0 0 0 xyz
    dof rz ry rx
    limits( -inf , inf )
( -inf , inf )
( -inf , inf )

  end
  begin
    id 22
    name lclavicle
    direction 0.940017 0.332249 -0.0773232
    length 8.29589
    axis 0 -0 0 xyz
    dof rx ry rz
    limits( -inf , inf )
( -inf , inf )
( -inf , inf )

  end
  begin
    id 23
    name lhumerus
    direction 1 7.41158e-008 -1.44768e-008
    length 12.0042
    axis 180 -30 -90 xyz
    dof rx ry rz
    limits( -inf , inf )
( -inf , inf )
( -inf , inf )

  end
  begin
    id 24
    name lradius
    direction 1 -1.32972e-007 3.10821e-007
    length 8.1902
    axis 180 -30 -90 xyz
    dof rz ry rx
    limits( -inf , inf )
( -inf , inf )
( -inf , inf )

  end
  begin
    id 25
    name lwrist
    direction 1 3.08957e-007 4.01394e-007
    length 4.09509
    axis -90 90 0 xyz
    dof rz rx ry
    limits( -inf , inf )
( -inf , inf )
( -inf , inf )

  end
  begin
    id 26
    name lthumb
    direction 0 0 0
    length 0
    axis 0 0 0 xyz
    dof ry rx rz
    limits( -inf , inf )
( -inf , inf )
( -inf , inf )

  end
  begin
    id 27
    name lhand
    direction 1 -1.64125e-007 -6.99514e-007
    length 1.37229
    axis -90 90 0 xyz
    dof ry rx rz
    limits( -inf , inf )
( -inf , inf )
( -inf , inf )

  end
  begin
    id 28
    name lfingers
    direction 0 0 0
    length 0
    axis 0 0 0 xyz
    dof rz ry rx
    limits( -inf , inf )
( -inf , inf )
( -inf , inf )

  end
  begin
    id 29
    name lowerneck
    direction -0.030798 0.998024 0.0547665
    length 3.93918
    axis 0 -0 0 xyz
    dof rx ry rz
    limits( -inf , inf )
( -inf , inf )
( -inf , inf )

  end
  begin
    id 30
    name upperneck
    direction 0.0531588 0.996611 -0.0627736
    length 3.95491
    axis 0 -0 0 xyz
    dof rx ry rz
    limits( -inf , inf )
( -inf , inf )
( -inf , inf )

  end
  begin
    id 31
    name head
    direction 0 0 0
    length 0
    axis 0 0 0 xyz
    dof rx ry rz
    limits( -inf , inf )
( -inf , inf )
( -inf , inf )

  end
:hierarchy
  begin
    root lfemurDummy rfemurDummy lowerbackDummy
    lfemurDummy lfemur
    lfemur ltibia
    ltibia lfoot
    lfoot ltoes
    rfemurDummy rfemur
    rfemur rtibia
    rtibia rfoot
    rfoot rtoes
    lowerbackDummy lowerback
    lowerback upperback
    upperback thorax
    thorax rclavicle lclavicle lowerneck
    rclavicle rhumerus
    rhumerus rradius
    rradius rwrist
    rwrist rthumb rhand
    rhand rfingers
    lclavicle lhumerus
    lhumerus lradius
    lradius lwrist
    lwrist lthumb lhand
    lhand lfingers
    lowerneck upperneck
    upperneck head
  end

:SAMPLES-PER-SECOND 30
:FULLY-SPECIFIED
:DEGREES
20
root  -0.06335444572 37.76710991 4.428555646 -178.8540039 -67.70870209 179.2550049
lowerback  14.96469975 2.431550026 -0.3979369998
upperback  2.541769981 3.001039982 0.1198680028
thorax  -5.709899902 1.411059976 -0.2295330018
lowerneck  -6.864009857 13.26119995 -2.278949976
upperneck  8.855179787 18.77820015 -8.357620239
head  4.388519764 8.661470413 -1.040910006
lclavicle  0 -9.442270133e-015 7.951389973e-016
lhumerus  -40.42089844 -13.44130039 75.45539856
lradius  2.910930216e-031 -1.998831988e-031 145.5240021
lwrist  -1.412450015e-030 1.765562519e-031 25.4489994
lhand  -1.496451383e-031 -27.76390076 20.11240005
lfingers  90 7.125020027 -90
lthumb  89.89689403 5.08795885 91.16245106
rclavicle  0 -9.442270133e-015 7.951389973e-016
rhumerus  -41.46709824 19.60680008 -83.45459747
rradius  -7.79971531e-032 3.443905987e-031 102.7610016
rwrist  1.412450015e-030 8.827812596e-032 -31.93059921
rhand  -7.920061211e-032 -33.2840004 9.303460121
rfingers  -90 -7.125020027 -90
rthumb  -92.93752616 -24.25625642 -97.11982154
rfemur  -3.586999893 23.49799919 0.9799219966
rtibia  -0 0 41.02550125
rfoot  -0 -21.00589943 -13.91530037
rtoes  5.373923086 19.29304026 -105.8922705
lfemur  -16.59119987 -2.625 7.945720196
ltibia  -0 0 42.49980164
lfoot  -0 -1.682579994 10.79030037
ltoes  -4.250644065 -19.5611806 -102.515957
21
root  -0.2184211034 37.6626653 4.569510963 -178.71698 -68.06410217 178.7490234
lowerback  15.07390022 2.511919975 -0.932412982
upperback  2.461319923 3.033859968 0.2547479868
thorax  -5.890960217 1.439630032 0.1999340057
lowerneck  -6.563839912 13.43410015 -2.036129951
upperneck  8.430509567 19.04509926 -9.590000153
head  4.365530014 8.751979828 -1.432890058
lclavicle  0 -9.442270133e-015 7.951389973e-016
lhumerus  -39.44390106 -12.69579983 71.86920166
lradius  2.912673524e-031 -1.996290806e-031 145.5740051
lwrist  -1.412450015e-030 -4.413906298e-032 26.46139908
lhand  -1.496451383e-031 -27.76390076 20.11240005
lfingers  90 7.125020027 -90
lthumb  89.89689403 5.08795885 91.16245106
rclavicle  0 -9.442270133e-015 7.951389973e-016
rhumerus  -43.98450089 20.42740059 -83.79199982
rradius  -7.720951562e-032 3.445680355e-031 102.6299973
rwrist  7.062250077e-031 4.634601613e-031 -31.82220078
rhand  -7.920061211e-032 -33.2840004 9.303460121
rfingers  -90 -7.125020027 -90
rthumb  -92.93752616 -24.25625642 -97.11982154
rfemur  -3.346980095 23.28140068 0.7020069957
rtibia  -0 0 41.79579926
rfoot  -0 -20.42560005 -14.00370026
rtoes  5.373923086 19.29304026 -105.8922705
lfemur  -16.20229912 -2.915280104 7.603209972
ltibia  -0 0 42.96910095
lfoot  -0 -3.141400099 10.97249985
ltoes  -4.250644065 -19.5611806 -102.515957
22
root  -0.3698622148 37.58555435 4.711066644 -178.289978 -68.58190155 178.0809937
lowerback  15.07789993 2.611040115 -1.471869946
upperback  2.292390108 3.083770037 0.2013610005
thorax  -6.099410057 1.479320049 0.4320380092
lowerneck  -6.175759792 13.60029984 -1.209259987
upperneck  8.141719818 19.27619934 -10.93299961
head  4.43708992 8.836090088 -1.932039976
lclavicle  0 -9.442270133e-015 7.951389973e-016
lhumerus  -37.86700058 -11.99310017 67.20850372
lradius  2.908346031e-031 -2.002590173e-031 145.4499969
lwrist  -1.412450015e-030 3.806994182e-031 29.25519943
lhand  -1.496451383e-031 -27.76390076 20.11240005
lfingers  90 7.125020027 -90
lthumb  89.89689403 5.08795885 91.16245106
rclavicle  0 -9.442270133e-015 7.951389973e-016
rhumerus  -46.4477005 20.8696003 -84.34570313
rradius  -7.646967443e-032 3.447329826e-031 102.5070038
rwrist  1.412450015e-030 -4.413906298e-032 -31.72550011
rhand  -7.920061211e-032 -33.2840004 9.303460121
rfingers  -90 -7.125020027 -90
rthumb  -92.93752616 -24.25625642 -97.11982154
rfemur  -3.33465004 23.47649956 0.2995539904
rtibia  -0 0 42.83610153
rfoot  -0 -20.46990013 -13.07629967
rtoes  5.373923086 19.29304026 -105.8922705
lfemur  -16.32259941 -2.806969881 7.153220177
ltibia  -0 0 43.76879883
lfoot  -0 -3.643330097 10.88490009
ltoes  -4.250644065 -19.5611806 -102.515957
23
root  -0.5181266567 37.52555547 4.864133249 -177.6519775 -69.29759979 177.289978
lowerback  14.98700047 2.544359922 -2.166429996
upperback  2.165210009 2.893009901 0.199082002
thorax  -6.215360165 1.406170011 0.8594250083
lowerneck  -6.230820179 13.92409992 -0.5235220194
upperneck  8.217200279 19.78709984 -12.10379982
head  4.685790062 9.021670341 -2.296220064
lclavicle  0 -9.442270133e-015 7.951389973e-016
lhumerus  -35.83430099 -10.64340019 61.79809952
lradius  2.890936745e-031 -2.027641185e-031 144.9550018
lwrist  -1.412450015e-030 1.765562519e-031 33.38880157
lhand  -1.496451383e-031 -27.76390076 20.11240005
lfingers  90 7.125020027 -90
lthumb  89.89689403 5.08795885 91.16245106
rclavicle  0 -9.442270133e-015 7.951389973e-016
rhumerus  -48.5707016 21.63330078 -84.98429871
rradius  -7.618081982e-032 3.447969302e-031 102.4589996
rwrist  7.062250077e-031 1.655214862e-031 -31.29509926
rhand  -7.920061211e-032 -33.2840004 9.303460121
rfingers  -90 -7.125020027 -90
rthumb  -92.93752616 -24.25625642 -97.11982154
rfemur  -3.485739946 23.61190033 -0.1926250011
rtibia  -0 0 44.08929825
rfoot  -0 -19.91889954 -12.3441
rtoes  5.373923086 19.29304026 -105.8922705
lfemur  -16.78919983 -2.575530052 6.673890114
ltibia  -0 0 44.69469833
lfoot  -0 -4.132019997 10.38700008
ltoes  -4.250644065 -19.5611806 -102.515957
24
root  -0.6553266461 37.48333248 5.027400039 -176.3629761 -70.13939667 175.8120117
lowerback  14.95930004 2.372370005 -3.22480011
upperback  2.119210005 2.501970053 0.2510910034
thorax  -6.283850193 1.242390037 1.591009974
lowerneck  -6.613930225 14.37349987 -0.2301539928
upperneck  8.403809547 20.51399994 -13.05690002
head  4.987080097 9.286919594 -2.498539925
lclavicle  0 -9.442270133e-015 7.951389973e-016
lhumerus  -33.42100143 -8.595769882 56.19929886
lradius  2.851405569e-031 -2.08286589e-031 143.8529968
lwrist  -7.062250077e-031 6.179468817e-031 37.90819931
lhand  -1.496451383e-031 -27.76390076 20.11240005
lfingers  90 7.125020027 -90
lthumb  89.89689403 5.08795885 91.16245106
rclavicle  0 -9.442270133e-015 7.951389973e-016
rhumerus  -50.22180176 22.79809952 -85.48889923
rradius  -7.693887975e-032 3.446285669e-031 102.5849991
rwrist  7.062250077e-031 1.655214862e-032 -30.53420067
rhand  -7.920061211e-032 -33.2840004 9.303460121
rfingers  -90 -7.125020027 -90
rthumb  -92.93752616 -24.25625642 -97.11982154
rfemur  -3.785330057 23.62310028 -0.9247329831
rtibia  -0 0 45.53070068
rfoot  -0 -18.15430069 -12.09980011
rtoes  5.373923086 19.29304026 -105.8922705
lfemur  -17.5163002 -2.251820087 5.952459812
ltibia  -0 0 45.65250015
lfoot  -0 -4.551189899 9.626540184
ltoes  -4.250644065 -19.5611806 -102.515957
25
root  -0.795397796 37.46355612 5.197066585 -174.1669922 -71.09780121 173.2000122
lowerback  15.17469978 2.280750036 -4.678229809
upperback  2.105499983 2.132659912 0.2631160021
thorax  -6.451059818 1.098180056 2.495340109
lowerneck  -6.993159771 14.76469994 -0.02573030069
upperneck  8.652070045 21.16830063 -13.85249996
head  5.285439968 9.514690399 -2.644920111
lclavicle  0 -9.442270133e-015 7.951389973e-016
lhumerus  -30.64069939 -6.468770027 50.94720078
lradius  2.786430474e-031 -2.169020344e-031 142.102005
lwrist  0 6.179468817e-031 42.12889862
lhand  -1.496451383e-031 -27.76390076 20.11240005
lfingers  90 7.125020027 -90
lthumb  89.89689403 5.08795885 91.16245106
rclavicle  0 -9.442270133e-015 7.951389973e-016
rhumerus  -51.61190033 23.90189934 -85.67759705
rradius  -7.877232828e-032 3.442141204e-031 102.8899994
rwrist  7.062250077e-031 4.772536185e-031 -29.72699928
rhand  -7.920061211e-032 -33.2840004 9.303460121
rfingers  -90 -7.125020027 -90
rthumb  -92.93752616 -24.25625642 -97.11982154
rfemur  -3.940749884 23.81419945 -1.955019951
rtibia  -0 0 47.06570053
rfoot  -0 -15.91919994 -11.45839977
rtoes  5.373923086 19.29304026 -105.8922705
lfemur  -18.3125 -1.878859997 4.861579895
ltibia  -0 0 46.6473999
lfoot  -0 -4.740670204 8.51900959
ltoes  -4.250644065 -19.5611806 -102.515957
